<?xml version="1.0" standalone="no"?>
<!DOCTYPE svg PUBLIC "-//W3C//DTD SVG 20010904//EN"
 "http://www.w3.org/TR/2001/REC-SVG-20010904/DTD/svg10.dtd">
<svg version="1.0" xmlns="http://www.w3.org/2000/svg"
 width="512.000000pt" height="512.000000pt" viewBox="0 0 512.000000 512.000000"
 preserveAspectRatio="xMidYMid meet">
<metadata>
Created by potrace 1.14, written by Peter Selinger 2001-2017
</metadata>
<g transform="translate(0.000000,512.000000) scale(0.100000,-0.100000)"
fill="#000000" stroke="none">
<path d="M2265 4924 c-255 -11 -452 -52 -595 -124 -184 -93 -413 -241 -595
-386 -132 -106 -365 -336 -459 -454 -301 -377 -478 -800 -527 -1258 -16 -152
-6 -458 20 -629 42 -278 148 -629 235 -783 8 -14 20 -41 28 -60 17 -48 133
-222 203 -306 137 -164 305 -312 448 -394 43 -25 122 -73 177 -108 255 -161
500 -262 784 -324 94 -21 126 -23 456 -22 316 0 372 2 510 22 320 47 474 99
702 237 457 278 810 655 1028 1100 165 335 237 666 227 1040 -7 256 -39 452
-117 715 -41 136 -140 386 -190 475 -21 39 -60 110 -85 160 -118 224 -274 399
-447 499 -29 17 -56 44 -71 69 -94 160 -364 309 -752 416 -82 23 -183 51 -222
61 -40 11 -120 27 -177 35 -105 15 -432 25 -581 19z m569 -130 c149 -21 213
-42 237 -75 11 -16 44 -79 74 -141 76 -159 116 -314 85 -333 -6 -3 -81 12
-168 34 -236 59 -421 96 -640 126 -62 8 -117 15 -122 15 -6 0 -10 8 -10 17 0
56 -82 264 -131 335 -11 14 -19 29 -19 32 0 19 547 12 694 -10z m-804 -50 c24
-22 55 -66 75 -108 33 -69 80 -219 73 -235 -2 -4 -43 -42 -93 -83 -345 -289
-602 -756 -714 -1300 -59 -288 -80 -654 -58 -1013 l8 -130 -93 -61 c-140 -92
-486 -290 -493 -282 -7 7 -57 182 -79 278 -66 279 -93 681 -67 967 37 397 175
802 379 1113 213 327 536 630 910 856 74 44 101 44 152 -2z m1464 -133 c199
-80 336 -169 395 -256 l33 -50 -7 -165 c-4 -91 -8 -166 -9 -168 -2 -1 -54 22
-117 52 -115 54 -301 129 -394 160 l-50 16 0 97 c-1 76 -6 112 -24 163 -18 50
-79 186 -109 242 -5 9 187 -52 282 -91z m-2335 -298 c-485 -502 -732 -1197
-690 -1942 16 -282 55 -513 127 -764 19 -65 34 -122 34 -127 0 -12 -199 -112
-209 -106 -22 14 -126 332 -165 507 -55 248 -60 297 -60 584 0 252 2 279 27
405 95 482 321 888 702 1264 79 78 311 276 324 276 2 0 -38 -44 -90 -97z
m1276 -29 c66 -8 188 -28 270 -44 655 -126 1167 -331 1530 -614 84 -65 240
-222 280 -281 59 -88 135 -443 157 -730 6 -82 8 -167 4 -188 l-7 -38 -41 48
c-375 440 -1126 828 -2028 1048 -223 54 -567 120 -760 145 -47 6 -95 13 -108
16 l-22 4 21 43 c98 190 266 403 428 538 83 69 98 79 125 74 17 -2 85 -12 151
-21z m1760 -198 c84 -84 146 -170 209 -287 43 -81 106 -235 106 -261 0 -6 -30
18 -67 54 -94 89 -200 172 -327 253 -89 57 -106 72 -102 89 3 12 8 80 12 153
l7 132 46 -31 c25 -17 78 -63 116 -102z m-2400 -566 c529 -76 1014 -190 1404
-330 431 -154 822 -364 1106 -593 102 -82 275 -262 310 -322 26 -44 27 -50 22
-153 -9 -189 -107 -458 -203 -555 l-45 -46 -50 15 c-255 76 -1684 777 -2634
1292 -165 89 -221 124 -223 139 -4 25 39 203 74 312 19 57 96 261 99 261 0 0
63 -9 140 -20z m-86 -820 c936 -501 2169 -1107 2524 -1240 48 -19 87 -38 87
-43 0 -19 -92 -181 -152 -268 -78 -115 -164 -201 -240 -238 -96 -49 34 -93
-1103 376 -910 376 -1324 557 -1381 603 -29 25 -36 591 -10 790 9 63 16 123
16 133 0 9 4 17 8 17 4 0 117 -58 251 -130z m3081 -37 c16 -153 8 -474 -15
-598 -66 -363 -199 -664 -426 -965 -104 -138 -252 -296 -379 -405 -75 -63 -92
-74 -87 -55 4 14 12 53 18 87 9 54 14 62 37 68 48 12 161 95 220 162 76 86
157 209 231 353 44 85 77 135 119 177 65 66 115 156 162 288 52 148 80 280 80
377 0 47 7 115 16 150 14 52 15 97 10 263 -3 110 -8 216 -11 235 -4 30 -4 31
4 9 5 -15 14 -80 21 -146z m-3300 -923 c81 -41 509 -228 803 -350 42 -17 77
-35 77 -40 0 -16 -221 -259 -327 -359 -276 -263 -490 -375 -786 -411 l-89 -11
-63 36 c-104 58 -224 152 -326 256 -99 100 -233 270 -282 358 l-27 49 192 100
c303 156 534 288 673 386 28 19 52 35 54 35 3 1 48 -21 101 -49z m1272 -544
c141 -58 268 -110 282 -116 l26 -9 -73 -94 c-39 -52 -124 -166 -188 -253 -215
-294 -342 -419 -504 -499 -108 -54 -128 -55 -302 -20 -171 35 -342 94 -508
175 -199 98 -196 93 -89 114 169 33 335 113 511 245 112 84 322 288 459 446
60 69 113 124 119 121 5 -2 126 -51 267 -110z m726 -298 c163 -66 301 -124
305 -128 4 -4 3 -29 -4 -56 -59 -245 -308 -413 -722 -488 -172 -32 -479 -55
-610 -47 -5 1 13 17 40 37 124 93 233 218 443 504 154 211 226 300 241 300 5
0 143 -55 307 -122z"/>
</g>
</svg>
